<svg xmlns="http://www.w3.org/2000/svg" width="180" height="180" viewBox="0 0 180 180" fill="none" role="img" aria-label="Chris Lim">
  <defs>
    <linearGradient id="bg" x1="30" y1="24" x2="156" y2="156" gradientUnits="userSpaceOnUse">
      <stop stop-color="#0A66C2"/>
      <stop offset="1" stop-color="#004182"/>
    </linearGradient>
  </defs>
  <rect width="180" height="180" rx="40" fill="url(#bg)"/>
  <rect x="4" y="4" width="172" height="172" rx="36" stroke="#fff" stroke-opacity="0.14" stroke-width="2"/>
  <path fill="#fff" d="M85 52c-19 0-32 12.5-32 31s13 31 32 31c8 0 15-2.5 20-6.5l-8.5-11.5c-3.5 2.5-7.5 4-11.5 4-8 0-13-5.5-13-12.5s5-12.5 13-12.5c4 0 8 1.5 11.5 4l8.5-11.5c-5-4-12-6.5-20-6.5z"/>
  <path fill="#fff" d="M108 52h14v65h-14V52zm0 0h40v13h-40V52z"/>
</svg>
